<?xml version="1.0" encoding="UTF-8" standalone="no" ?>
<!DOCTYPE svg PUBLIC "-//W3C//DTD SVG 1.1//EN" "http://www.w3.org/Graphics/SVG/1.1/DTD/svg11.dtd">
<svg xmlns="http://www.w3.org/2000/svg" xmlns:xlink="http://www.w3.org/1999/xlink" version="1.1" width="1280" height="1024" viewBox="0 0 1280 1024" xml:space="preserve">
<desc>Created with Fabric.js 5.3.0</desc>
<defs>
</defs>
<g transform="matrix(1 0 0 1 640 512)" id="background-logo"  >
<rect style="stroke: none; stroke-width: 0; stroke-dasharray: none; stroke-linecap: butt; stroke-dashoffset: 0; stroke-linejoin: miter; stroke-miterlimit: 4; fill: rgb(255,255,255); fill-opacity: 0; fill-rule: nonzero; opacity: 1;"  paint-order="stroke"  x="-640" y="-512" rx="0" ry="0" width="1280" height="1024" />
</g>
<g transform="matrix(1.9211538461538462 0 0 1.9211538461538462 640 413.2836802474469)" id="logo-logo"  >
<g style=""  paint-order="stroke"   >
		<g transform="matrix(0.14895104255849556 0 0 -0.14895104255849564 0.00030156481562926274 -58.20238180224612)"  >
<linearGradient id="SVGID_2_245713" gradientUnits="userSpaceOnUse" gradientTransform="matrix(1 0 0 1 1381.3099999999997 9419.72)"  x1="0" y1="0" x2="0" y2="601">
<stop offset="0%" style="stop-color:rgb(91,36,122);stop-opacity: 1"/>
<stop offset="100%" style="stop-color:rgb(27,206,223);stop-opacity: 1"/>
</linearGradient>
<path style="stroke: none; stroke-width: 1; stroke-dasharray: none; stroke-linecap: butt; stroke-dashoffset: 0; stroke-linejoin: miter; stroke-miterlimit: 4; fill: url(#SVGID_2_245713); fill-rule: nonzero; opacity: 1;"  paint-order="stroke"  transform=" translate(-1624.9999999999998, -9720.16)" d="M 1534.66 9776.93 C 1534.66 9826.75 1575.19 9867.27 1625 9867.27 C 1674.81 9867.27 1715.34 9826.75 1715.34 9776.93 L 1715.34 9588.89 L 1715.34 9573.07 L 1715.34 9573.07 C 1715.34 9488.38 1784 9419.72 1868.6899999999998 9419.72 L 1868.6899999999998 9419.72 L 1868.6899999999998 9573.07 L 1868.6899999999998 9776.93 C 1868.6899999999998 9911.300000000001 1759.37 10020.6 1624.9999999999998 10020.6 C 1490.6299999999997 10020.6 1381.3099999999997 9911.300000000001 1381.3099999999997 9776.93 L 1381.3099999999997 9609.380000000001 L 1534.6599999999996 9609.380000000001 L 1534.6599999999996 9776.93" stroke-linecap="round" />
</g>
		<g transform="matrix(0.14895104255849556 0 0 -0.14895104255849564 58.20269252388823 -0.0015169809047108629)"  >
<path style="stroke: none; stroke-width: 1; stroke-dasharray: none; stroke-linecap: butt; stroke-dashoffset: 0; stroke-linejoin: miter; stroke-miterlimit: 4; fill: rgb(68,97,158); fill-rule: nonzero; opacity: 1;"  paint-order="stroke"  transform=" translate(-2015.7850000000003, -9329.384999999998)" d="M 2072.55 9419.72 C 2122.36 9419.72 2162.8900000000003 9379.199999999999 2162.8900000000003 9329.38 C 2162.8900000000003 9279.57 2122.36 9239.039999999999 2072.55 9239.039999999999 L 1884.5100000000002 9239.039999999999 L 1868.6900000000003 9239.039999999999 L 1868.6900000000003 9239.039999999999 C 1784.0000000000002 9239.039999999999 1715.3400000000004 9170.39 1715.3400000000004 9085.699999999999 L 1715.3400000000004 9085.699999999999 L 1868.6900000000003 9085.699999999999 L 2072.55 9085.699999999999 C 2206.92 9085.699999999999 2316.23 9195.019999999999 2316.23 9329.38 C 2316.23 9463.75 2206.92 9573.07 2072.55 9573.07 L 1905 9573.07 L 1905 9419.72 L 2072.55 9419.72" stroke-linecap="round" />
</g>
		<g transform="matrix(0.14895104255849556 0 0 -0.14895104255849564 0.00030156481562926274 58.2016370470333)"  >
<linearGradient id="SVGID_2_245714" gradientUnits="userSpaceOnUse" gradientTransform="matrix(1 0 0 1 1381.3100000000002 8638.150000000001)"  x1="0" y1="0" x2="0" y2="601">
<stop offset="0%" style="stop-color:rgb(91,36,122);stop-opacity: 1"/>
<stop offset="100%" style="stop-color:rgb(27,206,223);stop-opacity: 1"/>
</linearGradient>
<path style="stroke: none; stroke-width: 1; stroke-dasharray: none; stroke-linecap: butt; stroke-dashoffset: 0; stroke-linejoin: miter; stroke-miterlimit: 4; fill: url(#SVGID_2_245714); fill-rule: nonzero; opacity: 1;"  paint-order="stroke"  transform=" translate(-1625.0000000000002, -8938.595000000001)" d="M 1715.34 8881.84 C 1715.34 8832.02 1674.81 8791.49 1625 8791.49 C 1575.19 8791.49 1534.66 8832.02 1534.66 8881.84 L 1534.66 9069.880000000001 L 1534.66 9085.7 L 1534.66 9085.7 C 1534.66 9170.390000000001 1466 9239.04 1381.3100000000002 9239.04 L 1381.3100000000002 9239.04 L 1381.3100000000002 9085.7 L 1381.3100000000002 8881.84 C 1381.3100000000002 8747.460000000001 1490.63 8638.15 1625.0000000000002 8638.15 C 1759.3700000000003 8638.15 1868.6900000000003 8747.46 1868.6900000000003 8881.84 L 1868.6900000000003 9049.380000000001 L 1715.3400000000004 9049.380000000001 L 1715.3400000000004 8881.84" stroke-linecap="round" />
</g>
		<g transform="matrix(0.14895104255849556 0 0 -0.14895104255849564 -58.20239462180308 -0.0015169809047108629)"  >
<path style="stroke: none; stroke-width: 1; stroke-dasharray: none; stroke-linecap: butt; stroke-dashoffset: 0; stroke-linejoin: miter; stroke-miterlimit: 4; fill: rgb(68,97,158); fill-rule: nonzero; opacity: 1;"  paint-order="stroke"  transform=" translate(-1234.2129999999997, -9329.385000000002)" d="M 1177.45 9239.04 C 1127.64 9239.04 1087.1100000000001 9279.570000000002 1087.1100000000001 9329.380000000001 C 1087.1100000000001 9379.2 1127.64 9419.720000000001 1177.45 9419.720000000001 L 1365.49 9419.720000000001 L 1381.31 9419.720000000001 L 1381.31 9419.720000000001 C 1466 9419.720000000001 1534.6599999999999 9488.380000000001 1534.6599999999999 9573.070000000002 L 1534.6599999999999 9573.070000000002 L 1381.31 9573.070000000002 L 1177.4499999999998 9573.070000000002 C 1043.0899999999997 9573.070000000002 933.7659999999998 9463.750000000002 933.7659999999998 9329.380000000001 C 933.7659999999998 9195.02 1043.09 9085.7 1177.4499999999998 9085.7 L 1345 9085.7 L 1345 9239.04 L 1177.45 9239.04" stroke-linecap="round" />
</g>
</g>
</g>
<g transform="matrix(1.9211538461538462 0 0 1.9211538461538462 640.2894488431491 696.6620559766689)" id="text-logo"  >
<g style=""  paint-order="stroke"   >
		<g transform="matrix(1 0 0 1 0 0)" id="text-logo-path-0"  >
<path style="stroke: none; stroke-width: 0.6191684402685238; stroke-dasharray: none; stroke-linecap: butt; stroke-dashoffset: 0; stroke-linejoin: miter; stroke-miterlimit: 4; fill: rgb(76,74,144); fill-rule: nonzero; opacity: 1;"  paint-order="stroke"  transform=" translate(-146.7, 19.09)" d="M 7.59 0 L 3.85 0 L 3.85 -30.36 Q 3.85 -38.18 11.5 -38.18 L 11.5 -38.18 L 17.9 -38.18 Q 31.78 -38.18 31.78 -25.94 L 31.78 -25.94 Q 31.78 -17.45 24.81 -15.35 L 24.81 -15.35 L 34.61 0 L 29.62 0 Q 24.81 0 22.71 -3.51 L 22.71 -3.51 L 16.31 -14.05 L 12.4 -14.05 L 12.4 -5.66 Q 12.4 0 7.59 0 L 7.59 0 Z M 17.28 -31.55 L 17.28 -31.55 L 14.78 -31.55 Q 12.4 -31.55 12.4 -29.17 L 12.4 -29.17 L 12.4 -20.45 L 17.28 -20.45 Q 23.05 -20.45 23.05 -25.94 L 23.05 -25.94 Q 23.05 -31.55 17.28 -31.55 Z M 45.93 0 L 41.62 0 L 51.76 -33.42 Q 53.18 -38.18 59.01 -38.18 L 59.01 -38.18 L 64.79 -38.18 L 76.29 0 L 71.87 0 Q 67.4 0 66.32 -3.96 L 66.32 -3.96 L 65.24 -7.87 L 52.39 -7.87 L 51.31 -3.96 Q 50.23 0 45.93 0 L 45.93 0 Z M 58.9 -31.49 L 54.2 -14.39 L 63.49 -14.39 L 58.9 -31.49 Z M 88.63 0 L 84.89 0 L 84.89 -30.93 Q 84.89 -38.18 91.97 -38.18 L 91.97 -38.18 L 109.47 -38.18 Q 109.47 -31.21 102.62 -31.21 L 102.62 -31.21 L 95.76 -31.21 Q 93.44 -31.21 93.44 -28.89 L 93.44 -28.89 L 93.44 -22.03 L 103.47 -22.03 Q 106.87 -22.03 106.87 -18.58 L 106.87 -18.58 Q 106.87 -15.07 103.47 -15.07 L 103.47 -15.07 L 93.44 -15.07 L 93.44 -5.66 Q 93.44 0 88.63 0 L 88.63 0 Z M 115.07 0 L 110.77 0 L 120.91 -33.42 Q 122.32 -38.18 128.16 -38.18 L 128.16 -38.18 L 133.93 -38.18 L 145.43 0 L 141.01 0 Q 136.54 0 135.46 -3.96 L 135.46 -3.96 L 134.39 -7.87 L 121.53 -7.87 L 120.45 -3.96 Q 119.38 0 115.07 0 L 115.07 0 Z M 128.04 -31.49 L 123.34 -14.39 L 132.63 -14.39 L 128.04 -31.49 Z M 178.79 0 L 162.08 0 Q 153.98 0 153.98 -8.33 L 153.98 -8.33 L 153.98 -30.93 Q 153.98 -38.18 161.06 -38.18 L 161.06 -38.18 L 178.56 -38.18 Q 178.56 -31.21 171.71 -31.21 L 171.71 -31.21 L 164.85 -31.21 Q 162.53 -31.21 162.53 -28.89 L 162.53 -28.89 L 162.53 -22.83 L 172.55 -22.83 Q 175.95 -22.83 175.95 -19.37 L 175.95 -19.37 Q 175.95 -15.86 172.55 -15.86 L 172.55 -15.86 L 162.53 -15.86 L 162.53 -10.2 Q 162.53 -6.97 165.81 -6.97 L 165.81 -6.97 L 171.82 -6.97 Q 178.79 -6.97 178.79 0 L 178.79 0 Z M 211.97 0 L 196.85 0 Q 188.69 0 188.69 -8.33 L 188.69 -8.33 L 188.69 -32.51 Q 188.69 -38.18 193.67 -38.18 L 193.67 -38.18 L 197.53 -38.18 L 197.53 -10.88 Q 197.53 -7.7 200.81 -7.7 L 200.81 -7.7 L 205.91 -7.7 Q 211.97 -7.7 211.97 0 L 211.97 0 Z M 224.31 0 L 220.46 0 L 220.46 -32.12 Q 220.46 -38.18 225.44 -38.18 L 225.44 -38.18 L 229.24 -38.18 L 229.24 -20.79 L 237.85 -33.81 Q 240.68 -38.18 245.44 -38.18 L 245.44 -38.18 L 250.14 -38.18 L 237.45 -19.54 L 251.44 0 L 246.4 0 Q 241.3 0 238.3 -4.36 L 238.3 -4.36 L 229.24 -17.45 L 229.24 -5.66 Q 229.24 0 224.31 0 L 224.31 0 Z M 272.9 0.79 L 272.9 0.79 Q 256.19 0.79 256.19 -16.99 L 256.19 -16.99 L 256.19 -21.24 Q 256.19 -38.97 272.9 -38.97 L 272.9 -38.97 Q 289.55 -38.97 289.55 -21.24 L 289.55 -21.24 L 289.55 -16.99 Q 289.55 0.79 272.9 0.79 Z M 272.9 -6.4 L 272.9 -6.4 Q 280.38 -6.4 280.38 -16.82 L 280.38 -16.82 L 280.38 -21.35 Q 280.38 -31.78 272.9 -31.78 L 272.9 -31.78 Q 265.37 -31.78 265.37 -21.35 L 265.37 -21.35 L 265.37 -16.82 Q 265.37 -6.4 272.9 -6.4 Z" stroke-linecap="round" />
</g>
</g>
</g>
</svg>